<svg width="287" height="305" viewBox="0 0 287 305" fill="none" xmlns="http://www.w3.org/2000/svg">
<g clip-path="url(#clip0_342_888)">
<path d="M285.313 252.135C283.465 247.388 280.935 242.856 278.692 238.289C276.252 233.344 273.686 228.453 271.174 223.544C266.222 213.888 261.252 204.268 256.281 194.63C251.437 185.262 246.736 175.768 240.868 166.975C238.177 162.947 235.055 158.722 231.394 155.503C230.73 154.928 230.066 154.37 229.385 153.831C225.76 149.03 221.651 144.642 216.842 140.992C212.716 137.863 207.297 136.353 203.116 136.155C208.463 163.307 246.287 257.385 257.484 279.826C257.519 279.898 257.555 279.952 257.591 280.024C264.966 278.999 272.143 276.859 278.477 272.777C280.361 271.573 282.084 270.188 283.698 268.678C284.398 267.743 285.044 266.754 285.654 265.765C286.408 261.179 286.246 256.666 285.313 252.135Z" fill="#2A5B8C"/>
<path d="M142.325 139.014C140.315 140.165 138.413 141.442 136.565 142.808C134.753 143.401 132.976 144.193 131.326 145.164C127.414 147.429 123.789 150.342 120.434 153.363C113.723 159.441 108.107 166.597 102.975 174.042C97.5746 181.9 92.6761 190.099 87.2932 197.975C83.1304 204.053 78.4652 209.411 73.459 214.626C72.2748 213.511 71.0906 212.396 69.9243 211.263C63.8236 205.311 57.9562 199.108 52.2324 192.796C49.3076 189.578 46.4547 186.305 43.6735 182.961C41.0359 179.796 38.4341 174.761 33.9842 174.15C29.1037 173.466 25.9816 177.854 22.9133 180.965C19.4682 184.435 15.5925 187.923 13.6367 192.491C13.1882 193.552 13.1882 194.558 13.5111 195.404C13.4753 195.476 13.4214 195.547 13.3855 195.637C13.242 195.925 13.1164 196.231 13.0446 196.554C13.0446 196.572 13.0446 196.572 13.0446 196.59C18.4814 205.491 23.649 214.554 29.2831 223.311C34.4328 231.33 39.9772 239.224 46.4906 246.201C49.7383 249.689 53.3448 253.178 57.2744 256.199C57.7229 256.54 58.1715 256.882 58.638 257.224C58.656 257.224 58.656 257.242 58.6739 257.242C59.1225 257.565 59.5711 257.889 60.0197 258.195C60.0556 258.213 60.0914 258.249 60.1273 258.266C60.558 258.554 60.9886 258.842 61.4192 259.112C61.491 259.166 61.5628 259.201 61.6525 259.255C62.0472 259.507 62.4599 259.759 62.8547 259.993C62.9803 260.065 63.1059 260.137 63.2315 260.208C63.5903 260.424 63.9671 260.622 64.326 260.838C64.5054 260.946 64.7028 261.036 64.8822 261.126C65.2052 261.287 65.5103 261.449 65.8332 261.611C66.1024 261.737 66.3715 261.863 66.6586 261.989C66.8919 262.097 67.1251 262.222 67.3763 262.312C67.8967 262.546 68.417 262.762 68.9374 262.96C69.2424 263.085 69.5654 263.193 69.8704 263.301C70.0319 263.355 70.1934 263.409 70.3549 263.463C70.4805 263.499 70.5882 263.535 70.7138 263.571C81.4079 266.736 89.8232 260.19 96.3724 251.991C116.361 217.647 149.305 156.15 156.302 135.13C152.122 134.824 146.81 136.443 142.325 139.014ZM31.9746 188.355C32.0105 188.319 32.0643 188.283 32.1002 188.247C32.172 188.175 32.2437 188.103 32.3155 188.031C32.8538 188.751 33.3921 189.452 33.9304 190.171C33.2844 189.56 32.6385 188.966 31.9746 188.355Z" fill="#2A5B8C"/>
<path d="M64.2004 205.527C61.6884 210.346 60.0735 215.848 58.7816 220.919C57.5076 225.936 55.0315 235.322 58.7637 240.123C62.6573 235.286 65.2232 229.64 67.3584 223.814C67.8608 222.466 69.8704 222.771 69.8525 224.246C69.7807 231.762 67.0354 241.796 71.4674 248.557C75.4328 242.767 74.8766 234.855 75.9173 228.184C76.1146 226.871 78.1781 226.385 78.4293 227.932C79.5597 234.675 80.9234 241.975 85.4809 247.298C91.1689 243.342 87.7956 231.816 86.3781 226.619C84.6376 220.182 82.2512 213.96 79.6853 207.811C77.6757 210.148 75.6122 212.396 73.4591 214.626C72.2748 213.511 71.0906 212.396 69.9243 211.263C68.0044 209.375 66.1024 207.451 64.2004 205.527Z" fill="#32639E"/>
<path d="M228.38 81.132C227.644 77.9852 224.827 75.342 221.454 75.7376C219.247 75.9893 217.596 77.5177 216.412 79.4058C216.986 73.9754 223.517 38.2824 219.444 26.3607C216.519 17.7836 204.121 8.32539 195.759 4.87297C189.461 1.70825 182.392 0.431572 175.286 0.737255C168.181 0.431572 161.111 1.70825 154.813 4.87297C146.434 8.32539 134.053 17.7836 131.128 26.3607C127.055 38.3003 133.586 73.9934 134.161 79.4058C132.994 77.5177 131.344 75.9893 129.119 75.7376C125.727 75.342 122.91 77.9672 122.193 81.132C120.398 88.8999 130.105 98.9695 137.677 98.6638C137.857 98.6638 138 98.6099 138.144 98.5559C138.377 99.0774 138.79 99.5449 138.862 100.12C140.028 109.255 143.204 118.21 160.573 121.428C165.597 122.363 170.244 124.809 175.286 124.935C180.346 124.827 184.958 122.219 190 121.428C211.262 118.156 207.315 108.931 211.711 100.12C211.962 99.5988 212.195 99.0774 212.428 98.5559C212.554 98.6099 212.716 98.6638 212.895 98.6638C220.467 98.9515 230.174 88.8999 228.38 81.132Z" fill="#824E34"/>
<path d="M217.201 80.5566C215.784 85.6813 214.402 90.806 213.577 96.0745C218.888 92.0467 226.532 80.8443 217.201 80.5566Z" fill="#72412B"/>
<path d="M188.438 115.638C184.652 114.775 180.884 113.714 177.027 113.822C172.182 113.948 167.319 115.315 163.067 117.652C162.726 122.507 161.434 126.751 157.379 130.383C155.028 132.487 152.229 134.051 149.233 134.932C162.529 145.577 183.576 144.211 197.392 135.454C197.948 135.094 198.289 134.555 198.433 133.979C191.884 130.761 189.318 123.083 188.438 115.638Z" fill="#72412B"/>
<path d="M215.73 86.3466C216.214 83.5415 216.842 80.7724 217.47 78.0032C217.076 78.4348 216.735 78.9023 216.412 79.4238C216.555 78.1471 217.022 75.1622 217.596 71.2063C217.524 71.1883 217.435 71.1883 217.381 71.1523C216.089 79.19 212.464 87.2996 204.785 90.9498C200.55 92.9638 195.418 93.5212 190.843 92.4962C190.394 92.4063 189.946 92.2625 189.497 92.1186C189.246 92.0647 188.995 92.0287 188.744 91.9748C184.204 90.9858 180.633 89.781 176.453 92.5682C175.645 93.1076 174.874 92.9817 174.317 92.5142C173.94 92.5322 173.546 92.4243 173.169 92.2085C167.66 88.828 161.919 91.9748 156.159 92.8199C151.906 93.4492 147.564 92.8918 143.993 90.3385C139.239 86.958 136.906 81.5276 136.368 75.8814C135.973 75.8814 135.56 75.9174 135.165 75.9534C134.95 76.2231 134.681 76.4029 134.376 76.5108C135.219 79.4238 137.426 95.9487 137.947 98.6279C138.018 98.6099 136.457 118.012 160.591 121.428C165.651 122.148 170.262 124.809 175.304 124.935C180.364 124.827 184.94 121.968 190.018 121.428C203.888 119.99 210.634 109.74 214.043 99.3651C214.851 95.0676 214.994 90.6621 215.73 86.3466Z" fill="#161110"/>
<path d="M130.698 81.6714C129.693 82.4266 129.154 84.0809 129.047 85.2497C128.867 87.1557 129.675 89.0258 130.662 90.5902C132.384 93.3053 134.896 95.553 137.66 97.2612C136.978 92.712 136.152 88.1986 135.112 83.7213C134.179 82.2109 132.707 80.161 130.698 81.6714Z" fill="#72412B"/>
<path d="M142.935 55.4366C144.747 50.5097 149.986 47.7766 150.884 42.8856C151.799 37.9408 149.681 34.2006 155.19 31.4495C158.85 29.6334 163.336 30.2987 167.212 31.4854C167.14 30.7302 167.086 29.975 167.014 29.2198C166.781 28.2488 167.75 27.2598 168.737 27.6194C179.341 31.4675 188.133 38.7679 199.581 32.6362C200.281 32.2586 201.411 32.6362 201.537 33.5173C202.649 41.7348 206.669 48.9274 209.719 56.5335C210.706 58.979 211.334 61.4604 212.088 63.9778C213.164 67.5021 215.407 69.1384 217.775 69.2463C219.66 56.2817 222.459 34.4703 219.444 25.6595C216.519 17.0824 204.121 7.62416 195.759 4.17174C189.461 1.00702 182.392 -0.269661 175.286 0.0360221C168.181 -0.269661 161.111 1.00702 154.813 4.17174C146.434 7.62416 134.053 17.0824 131.128 25.6595C127.845 35.2795 131.451 60.2916 133.281 72.5009C133.981 72.1413 135.004 72.3211 135.309 73.2921C135.704 74.5508 136.063 75.8275 136.403 77.1042C138.933 69.9836 140.333 62.5213 142.935 55.4366Z" fill="#72412B"/>
<path d="M221.777 85.3036C222.046 83.973 222.441 81.7074 221.633 80.4846C220.682 79.0281 219.211 80.0531 218.045 80.8263C218.009 80.8443 217.991 80.8443 217.955 80.8622C217.345 85.1958 216.753 89.5293 216.179 93.8628C219.319 92.3523 221.131 88.5762 221.777 85.3036Z" fill="#72412B"/>
<path d="M136.439 95.2114C135.417 90.2485 134.627 85.1598 133.156 80.3048C125.476 83.3077 130.644 92.8558 136.439 95.2114Z" fill="#72412B"/>
<path d="M229.474 182.727C225.168 164.871 219.695 144.516 199.976 134.087C198.828 133.476 198.182 132.9 194.916 131.264C192.494 133.853 188.6 136.227 184.455 137.827C182.93 138.493 181.387 139.032 179.844 139.392C172.415 141.1 164.215 139.158 158.832 133.62C157.792 132.559 156.912 131.426 156.123 130.239C153.288 131.768 150.704 133.548 149.663 134.105C129.944 144.534 124.471 164.889 120.165 182.745C112.952 212.63 111.732 282.362 111.534 305.018H238.087C237.89 282.344 236.688 212.612 229.474 182.727Z" fill="#D0E4EF"/>
<path d="M160.447 163.577C166.476 160.466 170.818 155.035 175.968 150.738C176.363 150.414 176.991 150.45 177.242 150.954C178.462 153.381 179.413 155.917 180.544 158.38C181.046 159.477 181.638 162.084 182.517 162.911C185.46 165.68 193.068 158.56 194.97 156.564C200.012 151.259 203.475 144.444 205.072 137.27C203.475 136.137 201.806 135.058 199.976 134.087C198.828 133.476 198.182 132.9 194.916 131.264C192.494 133.853 188.6 136.227 184.455 137.827C182.93 138.493 181.387 139.032 179.844 139.392C172.415 141.1 164.215 139.158 158.832 133.62C157.792 132.559 156.912 131.426 156.123 130.239C153.593 131.606 151.26 133.17 150.058 133.871C149.986 144.48 154.795 154.73 160.447 163.577Z" fill="#C8DEE8"/>
<path d="M181.602 196.339C183.989 190.782 183.163 183.266 182.661 177.422C181.692 166.058 179.754 153.705 175.896 142.664C165.579 156.959 164.072 178.375 168.593 195.332C172.756 198.748 178.785 202.884 181.602 196.339Z" fill="#BA9067"/>
<path d="M178.031 149.587C177.386 147.232 176.704 144.912 175.914 142.664C172.792 146.98 170.495 151.943 168.916 157.229C171.859 154.586 174.891 152.015 178.031 149.587Z" fill="#C89F73"/>
<path d="M170.621 181.216C174.21 177.296 178.103 173.682 181.871 169.96C181.656 168.234 181.441 166.507 181.172 164.763C178.426 167.55 175.824 170.481 173.043 173.161C170.836 175.282 168.575 177.332 166.279 179.364C166.351 181.414 166.53 183.464 166.781 185.478C168.055 184.057 169.329 182.637 170.621 181.216Z" fill="#C89F73"/>
<path d="M170.155 196.572C171.482 195.206 172.81 193.839 174.138 192.473C176.991 189.56 179.844 186.161 183.109 183.446C183.002 181.342 182.822 179.31 182.661 177.44C182.625 177.117 182.589 176.775 182.553 176.433C179.664 179.22 176.776 182.007 174.066 184.956C171.949 187.258 169.867 189.596 167.768 191.915C168.001 193.066 168.27 194.217 168.576 195.332C169.096 195.727 169.616 196.159 170.155 196.572Z" fill="#B23948"/>
<path d="M174.64 199.252C177.386 200.331 180.005 200.043 181.602 196.339C182.41 194.487 182.822 192.383 183.038 190.225C180.023 193.156 177.26 196.482 174.64 199.252Z" fill="#B23948"/>
<path d="M171.177 167.874C174.21 164.853 177.045 161.706 180.131 158.811C179.88 157.535 179.646 156.258 179.359 154.981C175.071 158.434 170.962 162.102 166.979 165.932C166.656 168.108 166.44 170.302 166.333 172.495C167.983 170.985 169.598 169.456 171.177 167.874Z" fill="#C89F73"/>
<path d="M229.474 182.727C225.401 165.842 220.27 146.728 203.044 135.885C199.725 154.478 189.479 173.143 175.035 184.309C174.658 184.597 174.228 184.597 173.887 184.273C160.447 171.848 149.95 152.95 149.61 134.123C129.944 144.552 124.489 164.889 120.183 182.727C112.97 212.612 111.75 282.344 111.552 305H238.105C237.89 282.344 236.687 212.612 229.474 182.727Z" fill="#32639E"/>
<path d="M203.529 159.225C208.427 156.546 213.864 155.161 218.834 152.644C215.084 146.153 210.078 140.327 203.026 135.885C199.707 154.478 189.461 173.143 175.017 184.309C174.64 184.597 174.21 184.597 173.869 184.273C160.429 171.848 149.933 152.95 149.592 134.123C148.372 134.77 147.223 135.454 146.111 136.173C142.056 144.085 138.252 152.122 134.968 160.394C139.92 161.239 144.926 161.347 149.933 161.581C150.579 161.617 150.884 162.3 150.596 162.839C148.372 167.047 145.859 171.093 143.617 175.282C142.235 177.836 139.992 180.03 142.863 181.81C144.693 182.961 146.793 183.77 148.712 184.795C152.839 186.97 172.361 200.277 173.438 200.133C173.958 200.061 174.694 220.973 174.784 230.719C174.873 240.807 174.335 250.894 174.461 260.982C174.586 271.411 175.035 281.858 175.268 292.287C175.358 296.351 175.95 300.792 175.573 305.018H180.813C180.49 299.282 177.547 241.76 177.439 228.112C177.386 221.279 176.704 201.194 177.529 199.503C178.193 198.119 192.906 187.69 198.146 183.985C203.367 180.281 208.75 176.829 213.649 172.675C210.221 168.486 206.077 164.943 203.17 160.34C202.954 159.962 203.152 159.423 203.529 159.225Z" fill="#2A5B8C"/>
<path d="M154.508 144.768C155.656 147.303 156.894 149.821 158.617 152.015C160.196 154.01 161.865 155.791 163.031 158.002C167.355 153.957 171.464 149.749 174.999 144.966C175.448 144.372 176.237 144.552 176.488 145.218C177.637 148.31 184.688 156.276 185.873 158.11C190.43 154.064 195.454 150.684 198.487 145.218C200.191 142.161 201.447 138.87 202.326 135.49C201.555 135.022 200.783 134.537 199.976 134.105C198.828 133.494 198.182 132.918 194.916 131.282C192.494 133.871 188.6 136.245 184.455 137.845C182.93 138.511 181.387 139.05 179.844 139.41C172.415 141.118 164.215 139.176 158.832 133.638C157.792 132.577 156.912 131.444 156.123 130.257C154.095 131.354 152.211 132.559 150.919 133.368C151.332 137.324 152.965 141.352 154.508 144.768Z" fill="#E9F8FF"/>
<path d="M222.907 195.601C219.014 195.583 215.102 195.583 211.208 195.565C208.355 195.547 205.825 195.278 203.295 196.105C201.465 196.357 199.707 196.842 198.164 197.849C197.087 198.55 197.087 200.043 198.164 200.744C199.707 201.751 201.465 202.237 203.277 202.488C205.807 203.333 208.319 203.046 211.19 203.028C215.084 203.01 218.996 203.01 222.889 202.992C225.258 202.992 226.442 201.158 226.442 199.306C226.46 197.435 225.276 195.583 222.907 195.601Z" fill="#2A5B8C"/>
<path d="M166.297 207.811C161.47 207.811 161.452 215.345 166.297 215.345C171.123 215.345 171.141 207.811 166.297 207.811Z" fill="#2A5B8C"/>
<path d="M167.122 231.546C164.718 231.546 162.403 233.668 162.529 236.149C162.636 238.649 164.556 240.753 167.122 240.753C169.526 240.753 171.841 238.631 171.716 236.149C171.608 233.668 169.688 231.546 167.122 231.546Z" fill="#2A5B8C"/>
<path d="M168.755 254.275C162.547 254.275 162.529 263.949 168.755 263.949C174.963 263.949 174.981 254.275 168.755 254.275Z" fill="#2A5B8C"/>
<path d="M168.755 280.851C166.422 280.851 164.179 282.919 164.287 285.328C164.395 287.756 166.261 289.806 168.755 289.806C171.088 289.806 173.33 287.738 173.223 285.328C173.115 282.901 171.249 280.851 168.755 280.851Z" fill="#2A5B8C"/>
<path d="M175.896 108.302C183.63 108.194 188.761 103.806 190.215 98.466L159.299 99.7067C160.716 105.407 168.558 108.41 175.896 108.302Z" fill="#8C4B2F"/>
<path d="M187.38 98.5919L162.26 99.5989C163.605 101.451 164.251 103.501 164.287 105.605C167.499 107.439 171.787 108.356 175.896 108.302C180.256 108.23 183.791 106.809 186.303 104.634C186.321 102.566 186.555 100.498 187.38 98.5919Z" fill="#FFFFFA"/>
<path d="M163.713 102.368C164.072 103.429 164.269 104.508 164.287 105.623C167.499 107.457 171.787 108.374 175.896 108.32C180.256 108.248 183.791 106.827 186.303 104.652C186.303 103.627 186.375 102.62 186.537 101.631C179.234 103.447 170.585 103.95 163.713 102.368Z" fill="#F2F2F0"/>
<path d="M181.243 80.7364C180.759 80.5926 180.149 80.6285 179.646 80.7903C179.628 80.7903 179.61 80.7903 179.593 80.7903C179.377 80.7724 179.18 80.7724 178.965 80.7724C178.57 80.7724 177.583 80.9522 177.188 80.9702C177.188 80.2509 177.35 67.7359 175.322 67.6639C172.774 67.8797 173.51 80.3948 173.51 81.114C173.115 81.096 172.092 80.7544 171.698 80.7544C171.482 80.7544 171.285 80.7544 171.07 80.7724C171.052 80.7724 171.034 80.7724 171.016 80.7724C170.495 80.6105 169.903 80.5566 169.419 80.7184C167.947 81.168 167.266 82.4626 167.553 83.8652C167.714 84.6204 168.181 85.1598 168.791 85.5015C168.737 85.4655 169.76 84.7642 169.867 84.7103C170.334 84.5125 170.836 84.4585 171.339 84.5305C172.918 84.7642 173.779 86.5444 175.322 86.4904C175.86 86.4725 176.399 86.2926 176.829 85.933C177.511 84.9261 178.749 84.4765 179.969 84.8541C180.526 85.016 180.992 85.3396 181.351 85.7352C182.212 85.4116 182.912 84.8182 183.109 83.8472C183.396 82.4626 182.715 81.1859 181.243 80.7364Z" fill="#72412B"/>
<path d="M199.671 64.1216C200.73 64.2295 209.27 67.3223 208.678 71.6018C208.032 76.295 199.545 75.0363 198.648 75.0003C194.826 74.8025 188.08 76.2051 187.523 72.4829C186.913 68.6529 190.915 63.2225 199.671 64.1216Z" fill="#72412B"/>
<path d="M185.711 59.2306C190.358 51.6065 205.718 51.211 209.558 59.9859C209.737 60.3815 209.378 60.795 208.965 60.7591C205.126 60.3815 201.555 59.3385 197.607 59.2846C193.786 59.2307 190.412 60.2916 186.698 60.9389C185.693 61.1007 185.281 59.9679 185.711 59.2306Z" fill="#050100"/>
<path d="M198.217 64.8948C193.498 64.5532 188.869 68.8147 187.577 73.1483C187.398 73.7596 188.133 74.0473 188.546 73.7237C189.569 72.8965 190.412 71.8716 191.273 70.8826C190.915 74.4249 193.014 78.237 197.589 78.237C202.021 78.237 204.121 74.6407 203.923 71.2063C204.515 71.9615 205.072 72.7527 205.628 73.5079C206.094 74.1552 207.225 73.9754 207.207 73.0763C207.099 68.9586 202.093 65.1825 198.217 64.8948Z" fill="black"/>
<path d="M199.904 67.7539C199.348 67.3403 198.469 68.0236 198.702 68.6709C199.043 69.552 199.473 70.7567 200.496 70.9545C201.088 71.0624 201.573 70.7028 201.627 70.0914C201.716 69.0665 200.676 68.3113 199.904 67.7539Z" fill="#FFFFFA"/>
<path d="M196.172 73.8496C195.472 73.5978 195.382 73.2562 194.988 72.8066C194.737 72.5189 194.306 72.5909 194.055 72.8066C192.673 74.0114 194.701 76.1871 196.172 75.6117C197.051 75.3061 197.051 74.1732 196.172 73.8496Z" fill="#FFFFFA"/>
<path d="M149.681 64.1216C148.623 64.2295 140.082 67.3223 140.674 71.6018C141.32 76.295 149.807 75.0363 150.704 75.0003C154.526 74.8025 161.273 76.2051 161.829 72.4829C162.439 68.6529 158.438 63.2225 149.681 64.1216Z" fill="#72412B"/>
<path d="M163.641 59.2306C158.994 51.6065 143.635 51.211 139.795 59.9859C139.615 60.3815 139.974 60.795 140.387 60.7591C144.227 60.3815 147.797 59.3385 151.745 59.2846C155.567 59.2307 158.94 60.2916 162.654 60.9389C163.659 61.1007 164.072 59.9679 163.641 59.2306Z" fill="#050100"/>
<path d="M151.135 64.8948C155.854 64.5532 160.483 68.8147 161.775 73.1483C161.954 73.7596 161.219 74.0473 160.806 73.7237C159.783 72.8965 158.94 71.8716 158.079 70.8826C158.438 74.4249 156.338 78.237 151.763 78.237C147.331 78.237 145.232 74.6407 145.429 71.2063C144.837 71.9615 144.281 72.7527 143.724 73.5079C143.258 74.1552 142.127 73.9754 142.145 73.0763C142.253 68.9586 147.259 65.1825 151.135 64.8948Z" fill="black"/>
<path d="M149.448 67.7539C150.004 67.3403 150.884 68.0236 150.65 68.6709C150.309 69.552 149.879 70.7567 148.856 70.9545C148.264 71.0624 147.779 70.7028 147.726 70.0914C147.636 69.0665 148.677 68.3113 149.448 67.7539Z" fill="#FFFFFA"/>
<path d="M153.18 73.8496C153.88 73.5978 153.97 73.2562 154.365 72.8066C154.616 72.5189 155.046 72.5909 155.298 72.8066C156.679 74.0114 154.652 76.1871 153.18 75.6117C152.301 75.3061 152.301 74.1732 153.18 73.8496Z" fill="#FFFFFA"/>
<path d="M152.391 83.7213C144.281 83.7213 137.677 78.9203 137.677 73.0224C137.677 67.1245 144.281 62.3235 152.391 62.3235C160.501 62.3235 167.104 67.1245 167.104 73.0224C167.122 78.9203 160.519 83.7213 152.391 83.7213ZM152.391 62.9708C144.604 62.9708 138.27 67.4841 138.27 73.0224C138.27 78.5607 144.604 83.074 152.391 83.074C160.178 83.074 166.512 78.5607 166.512 73.0224C166.512 67.4841 160.178 62.9708 152.391 62.9708Z" fill="#050100"/>
<path d="M198.182 83.7213C190.071 83.7213 183.468 78.9203 183.468 73.0224C183.468 67.1245 190.071 62.3235 198.182 62.3235C206.292 62.3235 212.895 67.1245 212.895 73.0224C212.913 78.9203 206.31 83.7213 198.182 83.7213ZM198.182 62.9708C190.394 62.9708 184.06 67.4841 184.06 73.0224C184.06 78.5607 190.394 83.074 198.182 83.074C205.969 83.074 212.303 78.5607 212.303 73.0224C212.303 67.4841 205.969 62.9708 198.182 62.9708Z" fill="#050100"/>
<path d="M179.557 72.5728C181.602 72.7347 181.71 73.2921 183.468 73.9034C183.755 74.0113 183.863 74.1552 184.042 74.0113C184.007 73.5438 183.989 73.0763 183.971 72.6088C183.917 72.5728 183.845 72.5189 183.773 72.4829C180.239 71.2242 178.552 70.6129 175.286 70.6129C172.021 70.6129 168.037 71.5299 166.709 73.2561C166.709 73.5438 166.691 73.8135 166.674 74.1012C166.781 74.1911 166.925 74.2631 167.068 74.2811C170.388 72.2492 175.519 71.422 179.557 72.5728Z" fill="#050100"/>
<path d="M139.185 76.4029C137.211 75.5398 134.753 75.342 132.671 75.0723C130.877 74.8385 128.203 74.1732 126.912 75.8275C126.696 76.0972 126.804 76.6367 127.235 76.6007C130.285 76.259 133.102 76.4568 136.152 77.0143C136.655 77.1042 139.382 78.255 139.884 77.7335C139.597 77.302 139.364 76.8704 139.185 76.4029Z" fill="#050100"/>
<path d="M220.718 73.6697C218.314 72.5369 214.564 73.7955 212.303 74.8205C211.495 75.1981 212.088 75.7555 212.913 75.5397C214.295 75.1621 215.622 75.3599 217.04 75.252C219.534 75.0363 219.695 75.0722 220.718 74.5148C221.023 74.335 221.041 73.8135 220.718 73.6697Z" fill="#050100"/>
<path d="M89.6437 114.847C76.1505 115.854 62.7111 117.185 49.2 117.886C35.6888 118.587 16.705 118.965 3.1759 118.965C3.1759 118.965 7.85905 151.655 8.30763 164.224C8.82798 178.519 9.07919 192.832 8.84593 207.145C8.72032 215.327 8.64855 223.508 8.32558 231.672C8.2538 233.614 10.3173 235.61 12.2372 235.358C25.21 233.614 38.165 231.816 51.1019 229.91C62.9444 228.184 75.5584 225.468 87.2752 229.316C90.0564 230.233 92.5146 227.464 92.5326 224.875C92.6761 197.274 92.9632 169.672 93.3221 142.053C93.4297 134.231 93.3759 126.373 93.6451 118.551C93.6809 116.555 91.5995 114.703 89.6437 114.847Z" fill="#EFEEEC"/>
<path opacity="0.64" d="M89.6438 114.847C82.4306 115.386 75.2355 116.016 68.0223 116.591C73.4411 124.161 76.5453 133.638 78.2858 142.538C80.4569 153.561 80.9055 165.087 78.9138 176.164C76.6888 188.571 70.4267 199.324 61.2398 207.901C51.4249 217.053 38.47 225.289 25.4254 228.669C19.6836 230.162 13.9956 230.395 8.37944 229.748C8.3615 230.395 8.34355 231.043 8.30767 231.69C8.2359 233.632 10.2994 235.628 12.2193 235.376C25.1921 233.632 38.147 231.834 51.084 229.928C62.9265 228.202 75.5405 225.486 87.2573 229.334C90.0385 230.251 92.4967 227.482 92.5147 224.893C92.6582 197.292 92.9453 169.69 93.3042 142.071C93.4118 134.249 93.358 126.391 93.6271 118.569C93.681 116.555 91.5996 114.703 89.6438 114.847Z" fill="#E0DEDC"/>
<path d="M171.716 264.254C171.554 263.697 171.41 263.121 171.303 262.546C165.4 263.121 159.604 261.072 154.095 257.727C150.776 255.713 148.389 253.915 144.388 255.372C143.652 255.641 142.953 255.965 142.271 256.307C141.463 256.99 140.656 257.673 139.849 258.356C137.372 260.424 134.914 262.51 132.438 264.542C130.985 265.729 128.221 267.257 127.952 269.379C127.665 271.627 130.052 273.587 131.344 275.133C133.138 277.291 134.986 280.456 137.57 281.66C138.305 282.002 139.059 281.696 139.418 281.103C140.782 283.171 142.253 285.113 143.312 286.767C144.245 288.241 146.9 287.54 146.685 285.688C146.434 283.315 145.393 281.355 144.227 279.305C142.863 276.931 141.553 274.432 143.473 271.95C143.563 271.842 143.652 271.717 143.76 271.609C143.581 272.274 143.473 272.957 143.437 273.695C143.168 278.621 146.165 283.027 148.946 286.821C150.327 288.709 153.162 286.875 151.996 284.843C150.525 282.254 148.623 278.657 150.094 275.655C150.65 274.522 151.799 273.407 153.073 273.155C154.795 272.813 155.979 274.252 157.271 275.115C160.609 277.381 164.718 278.262 168.719 277.632C171.859 277.147 176.47 275.708 175.017 271.699C174.03 269.181 172.487 266.934 171.716 264.254Z" fill="#824E34"/>
<path d="M142.54 266.017C139.418 266.574 137.139 269.757 136.87 272.831C136.762 274.09 136.96 275.744 137.462 277.309C137.354 277.183 137.265 277.039 137.175 276.913C136.17 275.439 135.058 274.018 134.412 272.346C132.815 268.138 137.857 266.538 140.441 264.434C140.746 264.182 140.548 263.625 140.118 263.769C137.211 264.758 132.833 267.383 132.707 270.854C132.617 272.957 134.035 274.648 135.147 276.302C135.955 277.507 137.049 280.258 138.557 280.599C138.7 280.635 138.862 280.581 138.987 280.474C139.49 281.139 140.064 281.696 140.71 282.056C141.033 282.218 141.374 281.84 141.176 281.534C139.759 279.305 138.18 276.356 138.09 273.641C137.965 270.26 140.136 268.174 142.737 266.484C143.06 266.322 142.827 265.963 142.54 266.017Z" fill="#72412B"/>
<path d="M146.362 268.246C142.576 270.458 139.777 275.547 142.899 279.502C143.042 279.682 143.312 279.556 143.258 279.341C142.701 277.255 142.522 275.151 143.383 273.101C144.155 271.231 145.895 270.368 146.918 268.75C147.133 268.408 146.667 268.066 146.362 268.246Z" fill="#72412B"/>
<path d="M152.427 270.907C150.668 272.382 148.569 274.432 147.941 276.715C146.99 280.204 149.592 283.602 150.13 286.929C150.256 287.738 151.512 287.738 151.44 286.875C151.171 284.07 149.323 281.66 149.125 278.873C148.91 275.637 151.547 273.928 153.091 271.501C153.36 271.141 152.786 270.602 152.427 270.907Z" fill="#72412B"/>
<path d="M171.303 254.275C168.468 254.832 166.225 255.264 164.7 255.515C164.484 255.551 164.269 255.623 164.072 255.695C164.161 255.821 164.251 255.947 164.341 256.091C168.916 263.679 172.81 272.094 174.371 280.689C174.389 280.689 174.425 280.707 174.443 280.707C175.986 280.725 177.996 280.761 180.113 280.833C180.31 271.447 177.386 261.881 171.303 254.275Z" fill="#E9F8FF"/>
<path d="M283.896 249.707C283.106 248.215 282.191 246.794 281.168 245.428C280.666 245.212 280.164 244.906 279.697 244.457C272.592 237.552 262.364 235.556 252.818 234.477C236.759 236.833 188.69 249.006 170.065 253.25C172.774 263.427 177.224 273.083 178.731 283.261C184.258 283.44 190.951 283.746 191.148 283.746C197.033 283.566 232.363 282.397 244.134 281.966C250.611 281.732 257.753 282.02 264.499 281.067C271.102 279.143 277.472 276.302 282.765 272.166C284.309 270.296 285.511 268.138 286.246 265.801C287.969 260.334 286.498 254.634 283.896 249.707Z" fill="#2A5B8C"/>
<path d="M264.93 237.75C264.069 233.362 257.573 233.758 254.2 233.506C249.804 233.182 244.475 232.176 241.155 235.862C240.976 236.059 240.904 236.293 240.922 236.545C240.599 236.599 240.294 236.707 240.007 236.887C239.738 237.048 239.54 237.408 239.576 237.714C239.774 239.35 240.976 239.908 242.232 240.789C243.901 241.939 245.48 243.108 246.951 244.511C250.073 247.496 251.867 250.948 254.056 254.598C255.187 256.486 258.129 255.03 257.501 252.962C256.263 248.844 253.195 244.942 250.127 242.011C250.916 242.443 251.688 242.91 252.442 243.414C254.074 244.529 255.635 245.805 257.071 247.172C258.345 248.395 259.332 249.851 261.108 250.247C261.951 250.427 262.705 249.761 262.705 248.916C262.687 245.176 257.232 241.885 254.361 240.231C251.652 238.667 248.638 237.426 245.516 236.905C248.261 236.833 251.347 237.606 253.787 237.858C257.125 238.199 260.408 238.541 263.71 239.062C264.553 239.188 265.091 238.541 264.93 237.75Z" fill="#32639E"/>
<path d="M186.178 275.277C184.922 275.277 183.755 276.518 183.863 277.776C183.971 279.125 185.011 280.096 186.357 280.096C187.613 280.096 188.779 278.855 188.672 277.596C188.564 276.266 187.523 275.277 186.178 275.277Z" fill="#32639E"/>
<path d="M197.625 277.596C197.5 276.05 196.315 274.935 194.772 274.935C194.073 274.935 193.301 275.331 192.835 275.852C192.386 276.338 192.063 277.129 192.117 277.812C192.242 279.359 193.427 280.473 194.97 280.473C195.67 280.473 196.441 280.078 196.908 279.556C197.374 279.053 197.697 278.262 197.625 277.596Z" fill="#32639E"/>
<path d="M204.749 275.205C203.475 275.205 202.309 276.446 202.416 277.722C202.524 279.071 203.565 280.06 204.928 280.06C206.202 280.06 207.369 278.819 207.261 277.543C207.153 276.176 206.113 275.205 204.749 275.205Z" fill="#32639E"/>
<path d="M210.939 271.177C210.921 270.817 210.598 270.476 210.221 270.512C199.994 271.213 189.551 271.285 179.395 272.634C178.785 272.706 178.803 273.587 179.431 273.587C189.443 273.677 199.581 272.508 209.593 271.932C209.719 274.917 209.863 277.902 210.024 280.887C210.078 281.894 211.639 281.822 211.567 280.833C211.37 277.614 211.154 274.396 210.939 271.177Z" fill="#32639E"/>
<path d="M76.9041 136.011C66.7124 135.49 56.3951 136.047 46.1855 136.227C36.0118 136.407 25.6407 136.083 15.5028 137.108C15.1619 137.144 15.1978 137.611 15.5387 137.629C25.7124 138.349 36.0835 137.701 46.2752 137.576C56.4669 137.45 66.8021 137.683 76.9759 136.856C77.5142 136.82 77.4424 136.047 76.9041 136.011Z" fill="#32639E"/>
<path d="M81.6591 146.854C70.4805 146.081 58.9969 146.98 47.7825 147.16C42.1483 147.249 36.4963 147.339 30.8621 147.465C25.2459 147.591 19.5221 147.411 13.9597 148.131C13.7624 148.149 13.7085 148.472 13.9238 148.49C19.1632 149.012 24.5282 148.706 29.8035 148.67C35.635 148.616 41.4665 148.526 47.298 148.454C52.9501 148.382 58.5842 148.292 64.2363 148.22C70.0499 148.131 75.9352 148.328 81.7129 147.735C82.2871 147.681 82.2153 146.89 81.6591 146.854Z" fill="#32639E"/>
<path d="M84.8171 158.937C79.2368 158.128 73.2438 158.829 67.6096 158.919L49.3974 159.207C43.3326 159.297 37.2499 159.405 31.1851 159.513C25.1383 159.621 19.0017 159.477 12.9908 160.124C12.5781 160.16 12.6319 160.718 13.0267 160.753C24.8691 161.653 37.0525 160.753 48.9129 160.574C54.7982 160.484 60.6836 160.394 66.5689 160.322C72.5081 160.232 78.9138 160.807 84.7812 159.782C85.1759 159.675 85.3195 159.009 84.8171 158.937Z" fill="#32639E"/>
<path d="M78.1243 170.445C73.3693 169.564 67.8967 170.374 63.0521 170.445C57.8844 170.535 52.7168 170.607 47.5492 170.697C37.0346 170.895 26.5199 171.291 16.0052 171.578C15.6464 171.596 15.6823 172.154 16.0411 172.136C26.5737 172.1 37.1063 172.172 47.621 172.064C52.7886 172.01 57.9562 171.92 63.1238 171.848C67.9685 171.776 73.4232 172.405 78.1602 171.398C78.6805 171.309 78.5908 170.535 78.1243 170.445Z" fill="#32639E"/>
<path d="M76.4735 183.77C66.5151 183.014 56.3055 183.788 46.3291 183.949C36.3169 184.111 26.2149 184.003 16.2206 184.831C15.8797 184.867 15.9155 185.334 16.2565 185.352C26.2687 185.873 36.3886 185.46 46.4188 185.334C56.3952 185.19 66.6048 185.676 76.5453 184.615C77.0836 184.561 77.0118 183.806 76.4735 183.77Z" fill="#32639E"/>
<path d="M83.0227 198.658C71.8262 198.406 60.6297 198.676 49.4332 198.838C38.2726 199 27.0223 198.91 15.8796 199.701C15.3952 199.737 15.449 200.42 15.9155 200.438C27.0941 200.888 38.3265 200.456 49.505 200.277C60.7015 200.097 71.8801 200.043 83.0586 199.449C83.579 199.431 83.5251 198.676 83.0227 198.658Z" fill="#32639E"/>
<path d="M82.628 211.353C71.898 211.137 61.186 211.263 50.4739 211.443C45.2166 211.533 39.9413 211.623 34.684 211.713C29.3549 211.803 23.6131 211.425 18.3558 212.414C18.0508 212.468 17.9431 212.935 18.302 213.007C23.4516 213.799 28.9961 213.295 34.1996 213.223C39.4569 213.151 44.7322 213.097 49.9895 213.025C60.8989 212.881 71.7904 212.684 82.6818 212.126C83.1663 212.072 83.1125 211.353 82.628 211.353Z" fill="#32639E"/>
<path d="M29.4626 161.707C21.9803 164.08 14.6416 167.227 7.28488 169.96C7.23105 169.672 7.23105 169.421 7.26694 169.169C11.0529 168.018 14.6954 165.698 18.1943 163.972C21.2446 162.462 27.0402 160.7 27.4888 156.852C27.6503 155.503 27.2017 154.334 25.9995 153.651C22.6083 151.691 17.9251 155.143 14.8569 156.726C11.0888 158.668 6.65687 160.376 3.40917 163.091C3.31945 163.163 3.24768 163.235 3.17591 163.307C1.95578 163.828 0.950962 165.033 0.448555 166.274C-0.322998 168.162 -0.0179654 170.158 1.04068 171.758C1.13039 172.082 1.23805 172.387 1.36365 172.693C0.520328 174.581 1.07656 176.721 2.61967 178.016C1.04068 181.001 2.70939 184.525 5.25731 186.988C4.77284 188.445 5.23937 190.153 6.67481 191.16C8.07438 192.149 9.90457 192.257 11.7168 191.897C17.1536 191.771 22.6801 190.117 27.8297 188.607C29.4087 188.139 30.3956 186.557 30.3956 184.956C30.3956 184.255 30.2162 183.662 29.8035 183.086C28.8884 181.774 27.1838 181.072 25.6227 181.576C22.4647 182.619 19.217 183.446 16.0052 184.399C14.9645 184.453 13.9597 184.363 12.9728 184.219C12.7396 184.021 12.4884 183.842 12.2372 183.662C14.498 183.23 16.7409 182.601 18.9479 182.007C22.5724 181.054 26.2866 180.371 29.8932 179.328C33.6612 178.231 32.7282 171.668 28.6731 172.334C24.8332 172.963 21.0652 174.06 17.333 175.121C14.803 175.84 12.2013 176.613 9.79692 177.71C9.79692 177.332 9.77897 176.955 9.74308 176.595C17.4407 174.293 25.3536 171.722 32.5488 168.126C36.2092 166.328 33.2486 160.52 29.4626 161.707Z" fill="#824E34"/>
</g>
<defs>
<clipPath id="clip0_342_888">
<rect width="287" height="305" fill="white"/>
</clipPath>
</defs>
</svg>
