<svg width="17" height="22" viewBox="0 0 17 22" fill="none" xmlns="http://www.w3.org/2000/svg">
<g clip-path="url(#clip0_338_542)">
<path d="M8.23766 0C8.41289 0 8.58558 0 8.76081 0C8.79383 0.0125085 8.82684 0.0300205 8.8624 0.0375256C9.69792 0.207642 10.282 0.800546 10.4319 1.62111C10.5106 2.04389 10.4217 2.43916 10.2465 2.82943C10.31 2.85445 10.3557 2.87196 10.4039 2.88947C12.8597 3.76257 14.3835 5.89902 14.3835 8.47828C14.3835 9.40891 14.3758 10.3395 14.3885 11.2702C14.3987 12.0032 14.4673 12.7412 14.8253 13.3966C15.0793 13.8594 15.4018 14.2897 15.7294 14.7075C16.2882 15.423 16.6869 16.206 16.8494 17.0992C16.9129 17.4419 16.9484 17.7896 16.9992 18.1349C16.9992 18.4075 16.9992 18.6802 16.9992 18.9504C16.8265 19.3232 16.5269 19.4333 16.1205 19.4282C14.5358 19.4132 12.9537 19.4232 11.369 19.4232C11.2902 19.4232 11.2115 19.4232 11.1379 19.4232C10.8534 21.0769 9.91632 21.995 8.51955 22C7.88465 22.0025 7.31833 21.8024 6.83327 21.4046C6.21361 20.8967 5.90886 20.2288 5.8733 19.4232C5.78188 19.4232 5.70315 19.4232 5.62442 19.4232C3.98893 19.4232 2.35597 19.4232 0.720479 19.4232C0.286209 19.4232 0.0017754 19.1656 -0.00330377 18.7628C-0.0210809 17.1817 0.352239 15.7357 1.42394 14.4999C1.73631 14.1396 1.99535 13.7219 2.21376 13.2991C2.53628 12.6686 2.59723 11.9682 2.60485 11.2702C2.61755 10.2895 2.60485 9.30885 2.61247 8.32818C2.63025 5.94655 4.14892 3.80259 6.41169 2.95952C6.52598 2.91699 6.63772 2.87446 6.752 2.82943C6.25678 1.79372 6.68089 0.805549 7.38436 0.357744C7.64086 0.192631 7.95068 0.115078 8.23766 0ZM15.704 18.1224C15.6177 17.6921 15.5567 17.2768 15.4501 16.874C15.2647 16.1685 14.8025 15.6181 14.3504 15.0678C13.5886 14.1421 13.1797 13.0739 13.1264 11.8931C13.0756 10.7573 13.0959 9.61906 13.0756 8.48078C13.0705 8.16056 13.0451 7.83534 12.9892 7.52013C12.5677 5.16352 10.1423 3.49989 7.76276 3.92518C5.48221 4.33295 3.92798 6.16921 3.92544 8.46077C3.92544 9.41392 3.93306 10.3646 3.92036 11.3177C3.90004 12.7612 3.5191 14.0846 2.54644 15.2054C2.3255 15.4605 2.12487 15.7357 1.94202 16.0184C1.53315 16.6564 1.37315 17.3643 1.34014 18.1224C6.11964 18.1224 10.8814 18.1224 15.704 18.1224ZM7.20913 19.4307C7.17357 20.1037 7.77799 20.7041 8.48908 20.7091C9.21286 20.7141 9.8249 20.1162 9.79189 19.4307C8.93097 19.4307 8.06751 19.4307 7.20913 19.4307ZM8.49162 1.29088C8.13861 1.29588 7.84402 1.58858 7.84656 1.93632C7.84656 2.28406 8.14369 2.57676 8.4967 2.57926C8.85732 2.58176 9.15953 2.27905 9.15445 1.92381C9.14429 1.57357 8.84462 1.28588 8.49162 1.29088Z" fill="white"/>
<path d="M17 8.55081C16.9822 8.57833 16.9593 8.60585 16.9441 8.63587C16.7917 8.92607 16.4997 9.07617 16.2102 9.00862C15.8978 8.93607 15.6946 8.68841 15.6921 8.35318C15.6845 7.39752 15.494 6.4769 15.108 5.6013C14.4833 4.18033 13.4954 3.06707 12.1443 2.27153C11.8599 2.10392 11.7278 1.85124 11.776 1.57856C11.8243 1.30837 12.0275 1.08322 12.3119 1.0607C12.4744 1.0482 12.6674 1.08572 12.8046 1.16828C14.948 2.44415 16.2889 4.29291 16.8222 6.70455C16.9009 7.05979 16.9416 7.42254 16.9974 7.78029C17 8.03546 17 8.29314 17 8.55081Z" fill="white"/>
<path d="M-1.14567e-05 8.13301C0.192997 5.10844 1.55676 2.76435 4.18523 1.16325C4.54331 0.945605 4.93949 1.03066 5.13503 1.35088C5.33058 1.6711 5.21884 2.04886 4.85568 2.26651C3.12368 3.30722 1.9961 4.79323 1.51612 6.73455C1.39168 7.23739 1.35613 7.76525 1.31549 8.28311C1.27994 8.73342 1.03868 9.02862 0.642504 9.02111C0.248868 9.01611 -0.00255104 8.7184 -1.14567e-05 8.26059C-1.14567e-05 8.21806 -1.14567e-05 8.17553 -1.14567e-05 8.13301Z" fill="white"/>
</g>
<defs>
<clipPath id="clip0_338_542">
<rect width="17" height="22" fill="white"/>
</clipPath>
</defs>
</svg>
