<svg width="157" height="48" viewBox="0 0 157 48" fill="none" xmlns="http://www.w3.org/2000/svg">
<path d="M6.7339 15.7743C7.5953 18.8961 9.94761 20.4487 13.7743 20.4487C16.2342 20.4487 18.0979 19.6229 19.3651 17.9628L24.5584 20.9525C22.0984 24.5038 18.4706 26.2794 13.6831 26.2794C9.55832 26.2794 6.24521 25.0323 3.7521 22.5465C1.2507 20.0523 0 16.914 0 13.1397C0 9.39023 1.23413 6.26841 3.69412 3.75774C6.1541 1.25533 9.31812 0 13.1779 0C16.8389 0 19.8538 1.26359 22.2393 3.78252C24.6164 6.30145 25.8091 9.42326 25.8091 13.1397C25.8091 13.9656 25.7263 14.8493 25.5606 15.7743H6.7339ZM6.6345 10.7942H19.3568C18.9924 9.10117 18.2304 7.84584 17.0874 7.0117C15.9361 6.18582 14.6357 5.76463 13.1696 5.76463C11.4385 5.76463 10.0056 6.20234 8.87914 7.08603C7.75268 7.96972 7.00723 9.20853 6.6345 10.7942Z" fill="white"/>
<path d="M34.5309 15.7743C35.3923 18.8961 37.7446 20.4487 41.5713 20.4487C44.0313 20.4487 45.8949 19.6229 47.1621 17.9628L52.3554 20.9525C49.8955 24.5038 46.2676 26.2794 41.4802 26.2794C37.3553 26.2794 34.0422 25.0323 31.5491 22.5465C29.056 20.0606 27.8053 16.9222 27.8053 13.1397C27.8053 9.39023 29.0394 6.26841 31.4994 3.75774C33.9511 1.25533 37.1069 0 40.9666 0C44.6276 0 47.6425 1.26359 50.028 3.78252C52.4051 6.30145 53.5979 9.42326 53.5979 13.1397C53.5979 13.9656 53.515 14.8493 53.3494 15.7743H34.5309ZM34.4315 10.7942H47.1539C46.7894 9.10117 46.0274 7.84584 44.8844 7.0117C43.7331 6.18582 42.4327 5.76463 40.9666 5.76463C39.2355 5.76463 37.8026 6.20234 36.6761 7.08603C35.5497 7.96972 34.796 9.20853 34.4315 10.7942Z" fill="white"/>
<path d="M62.0297 7.76325C62.0297 8.42395 62.4687 8.96903 63.3549 9.38197C64.2329 9.79491 65.3097 10.1583 66.5769 10.4804C67.8442 10.7942 69.1032 11.1906 70.3704 11.6779C71.6377 12.1569 72.7062 12.9663 73.5924 14.0895C74.4704 15.2209 74.9177 16.6249 74.9177 18.318C74.9177 20.8699 73.9652 22.8355 72.0519 24.2147C70.1385 25.5939 67.7531 26.2794 64.8872 26.2794C59.7602 26.2794 56.2732 24.3056 54.4095 20.3579L60.0004 17.2195C60.7293 19.3751 62.361 20.457 64.8955 20.457C67.1899 20.457 68.3412 19.7467 68.3412 18.318C68.3412 17.6573 67.9022 17.1122 67.0159 16.6992C66.1297 16.2863 65.0612 15.9147 63.7939 15.5761C62.5267 15.2457 61.2677 14.8328 60.0004 14.329C58.7332 13.8334 57.6647 13.0406 56.7784 11.967C55.9004 10.8933 55.4532 9.53889 55.4532 7.91191C55.4532 5.45905 56.356 3.5265 58.1699 2.11425C59.9756 0.701996 62.2285 0 64.9204 0C66.9497 0 68.7967 0.454233 70.4616 1.37096C72.1264 2.27942 73.4351 3.58431 74.4042 5.27736L68.921 8.25878C68.1258 6.56573 66.7923 5.72333 64.9287 5.72333C64.1004 5.72333 63.4046 5.90502 62.858 6.26841C62.303 6.6318 62.0297 7.13558 62.0297 7.76325Z" fill="white"/>
<path d="M93.3221 0.693726H100.205L91.1106 25.6187C89.8102 29.17 88.0956 31.755 85.9504 33.3654C83.8052 34.9759 81.1381 35.6944 77.9492 35.5292V29.5581C79.6803 29.5912 81.047 29.2278 82.0658 28.4597C83.0846 27.6999 83.888 26.4694 84.4844 24.7763L74.2551 0.693726H81.2955L87.7975 17.4177L93.3221 0.693726Z" fill="white"/>
<path d="M116.779 0C120.142 0 123.008 1.27185 125.385 3.8073C127.762 6.34274 128.955 9.4563 128.955 13.1397C128.955 16.8231 127.762 19.9284 125.385 22.4721C123.008 25.0076 120.133 26.2794 116.779 26.2794C113.284 26.2794 110.592 25.0654 108.695 22.6456V35.5293H102.259V0.693737H108.695V3.63386C110.583 1.21404 113.284 0 116.779 0ZM110.633 18.1858C111.933 19.499 113.573 20.1514 115.57 20.1514C117.566 20.1514 119.222 19.499 120.539 18.1858C121.856 16.8727 122.511 15.1961 122.511 13.1315C122.511 11.075 121.856 9.39023 120.539 8.07708C119.222 6.76394 117.574 6.11149 115.57 6.11149C113.565 6.11149 111.925 6.76394 110.633 8.07708C109.333 9.39023 108.687 11.0668 108.687 13.1315C108.687 15.1961 109.341 16.8809 110.633 18.1858Z" fill="white"/>
<path d="M137.933 15.7743C138.794 18.8961 141.147 20.4487 144.973 20.4487C147.433 20.4487 149.297 19.6229 150.564 17.9628L155.758 20.9525C153.298 24.5038 149.67 26.2794 144.882 26.2794C140.757 26.2794 137.444 25.0323 134.951 22.5465C132.458 20.0606 131.207 16.9222 131.207 13.1397C131.207 9.39023 132.442 6.26841 134.902 3.75774C137.353 1.25533 140.509 0 144.369 0C148.03 0 151.045 1.26359 153.43 3.78252C155.807 6.30145 157 9.42326 157 13.1397C157 13.9656 156.917 14.8493 156.751 15.7743H137.933ZM137.834 10.7942H150.556C150.192 9.10117 149.43 7.84584 148.286 7.0117C147.135 6.18582 145.835 5.76463 144.369 5.76463C142.638 5.76463 141.205 6.20234 140.078 7.08603C138.944 7.96972 138.198 9.20853 137.834 10.7942Z" fill="white"/>
<path d="M4.95312 36.4708C4.95312 36.0165 5.11878 35.6284 5.44181 35.3063C5.76484 34.9842 6.15413 34.8273 6.61796 34.8273C7.09008 34.8273 7.48765 34.9842 7.81068 35.298C8.12543 35.6119 8.2828 36.0083 8.2828 36.4708C8.2828 36.9333 8.11714 37.3379 7.79412 37.66C7.47109 37.9904 7.07351 38.1556 6.60968 38.1556C6.16241 38.1556 5.76484 37.9904 5.44181 37.66C5.11878 37.3297 4.95312 36.925 4.95312 36.4708ZM5.10221 47.6697V39.1301H8.12543V47.6614H5.10221V47.6697Z" fill="#C89F73"/>
<path d="M18.4126 47.6696V39.1301H21.1708V40.8644C21.5683 40.1707 22.0322 39.6669 22.5623 39.3448C23.0841 39.0227 23.7136 38.8658 24.4507 38.8658C25.0057 38.8658 25.4944 38.9566 25.9334 39.1301C26.3641 39.3035 26.7202 39.5595 26.9853 39.8981C27.2089 40.1872 27.3746 40.5341 27.4657 40.947C27.5651 41.3599 27.6065 41.9711 27.6065 42.7887V47.6696H24.5833V43.1025C24.5833 42.4171 24.4756 41.9215 24.252 41.616C24.0283 41.3021 23.6722 41.1535 23.1835 41.1535C22.554 41.1535 22.0984 41.3847 21.8085 41.8472C21.5186 42.3097 21.3778 43.0612 21.3778 44.0936V47.6779H18.4126V47.6696Z" fill="#C89F73"/>
<path d="M36.9329 46.9594L37.5624 44.6635C38.0013 45.0434 38.49 45.3407 39.0118 45.5472C39.5337 45.7536 40.072 45.8527 40.6104 45.8527C40.9914 45.8527 41.273 45.7949 41.4718 45.6711C41.6706 45.5472 41.77 45.3737 41.77 45.1425C41.77 44.7626 41.3724 44.4818 40.5773 44.3001C40.3205 44.2423 40.1052 44.1845 39.9478 44.1432C39.045 43.8954 38.3906 43.5733 37.9765 43.1686C37.5706 42.764 37.3636 42.2437 37.3636 41.5995C37.3636 40.7736 37.6783 40.1129 38.2995 39.6174C38.9207 39.1218 39.7739 38.8741 40.834 38.8741C41.3807 38.8741 41.9357 38.9402 42.5072 39.064C43.0787 39.1879 43.6585 39.3861 44.2466 39.6504L43.6171 41.7234C43.2195 41.4508 42.8053 41.2444 42.3995 41.104C41.9936 40.9636 41.5712 40.8892 41.1654 40.8892C40.8175 40.8892 40.5607 40.9388 40.3868 41.0461C40.2128 41.1535 40.1217 41.3104 40.1217 41.5086C40.1217 41.8142 40.5193 42.0702 41.3062 42.2767C41.4884 42.3263 41.6209 42.3675 41.712 42.3841C42.7557 42.6814 43.4845 43.0365 43.8904 43.4329C44.2963 43.8376 44.5033 44.3827 44.5033 45.0682C44.5033 45.9436 44.1637 46.6456 43.4928 47.1824C42.8219 47.7192 41.9274 47.9918 40.8258 47.9918C40.072 47.9918 39.3763 47.9092 38.7302 47.7357C38.0842 47.5623 37.4961 47.3063 36.9329 46.9594Z" fill="#C89F73"/>
<path d="M62.8829 39.1301V43.4907C62.8829 44.457 62.8083 45.1672 62.651 45.6297C62.4936 46.0922 62.2368 46.5051 61.8641 46.8685C61.4831 47.2484 61.011 47.5292 60.4477 47.7109C59.8845 47.9009 59.2219 47.9917 58.4599 47.9917C57.7061 47.9917 57.0435 47.9009 56.4803 47.7109C55.9171 47.521 55.4367 47.2402 55.0474 46.8685C54.6829 46.5217 54.4179 46.1087 54.2688 45.638C54.1197 45.1672 54.0369 44.4487 54.0369 43.4907V39.1301H56.9193V43.6806C56.9193 44.3992 57.0352 44.9112 57.2754 45.2333C57.5156 45.5554 57.8966 45.7123 58.4267 45.7123C58.9651 45.7123 59.3461 45.5554 59.5863 45.2416C59.8265 44.9277 59.9342 44.4074 59.9342 43.6806V39.1301H62.8829Z" fill="#C89F73"/>
<path d="M73.0541 47.6697V39.1301H75.9034V41.137C76.1932 40.4019 76.5991 39.8568 77.1043 39.4935C77.6096 39.1301 78.2308 38.9401 78.9514 38.9401C79.0674 38.9401 79.1916 38.9401 79.3076 38.9566C79.4235 38.9732 79.5478 38.9814 79.672 38.9979L79.3821 41.7316C79.1999 41.6738 79.026 41.6242 78.852 41.5994C78.6781 41.5747 78.5041 41.5582 78.3468 41.5582C77.6096 41.5582 77.0464 41.7811 76.6488 42.2271C76.2512 42.6731 76.0524 43.309 76.0524 44.1349V47.6697H73.0541Z" fill="#C89F73"/>
<path d="M97.9439 39.1301V47.6614H95.1774V46.2739C94.7798 46.8686 94.3408 47.298 93.8439 47.5788C93.3469 47.8513 92.7671 47.9917 92.1045 47.9917C90.9615 47.9917 90.0504 47.5788 89.3712 46.7447C88.692 45.9105 88.3441 44.8039 88.3441 43.3999C88.3441 42.0124 88.7003 40.9057 89.4126 40.0881C90.1249 39.2705 91.0857 38.8575 92.295 38.8575C92.9411 38.8575 93.496 38.9979 93.9598 39.2705C94.4237 39.543 94.8212 39.9642 95.1608 40.5341V39.1301H97.9439ZM95.2934 43.3916C95.2934 42.7309 95.1194 42.2023 94.7633 41.8142C94.4071 41.426 93.9184 41.2278 93.3055 41.2278C92.6926 41.2278 92.2039 41.4178 91.856 41.8059C91.4999 42.1941 91.3259 42.7227 91.3259 43.3916C91.3259 44.0606 91.4999 44.5809 91.856 44.9608C92.2122 45.3407 92.6926 45.5389 93.3055 45.5389C93.9184 45.5389 94.4071 45.3489 94.7633 44.9608C95.1194 44.5726 95.2934 44.0606 95.2934 43.3916Z" fill="#C89F73"/>
<path d="M108.206 47.6696V39.1301H110.964V40.8644C111.362 40.1707 111.826 39.6669 112.356 39.3448C112.878 39.0227 113.507 38.8658 114.244 38.8658C114.799 38.8658 115.288 38.9566 115.727 39.1301C116.158 39.3035 116.514 39.5595 116.779 39.8981C117.002 40.1872 117.168 40.5341 117.259 40.947C117.359 41.3599 117.4 41.9711 117.4 42.7887V47.6696H114.377V43.1025C114.377 42.4171 114.269 41.9215 114.046 41.616C113.822 41.3021 113.466 41.1535 112.977 41.1535C112.348 41.1535 111.892 41.3847 111.602 41.8472C111.312 42.3097 111.171 43.0612 111.171 44.0936V47.6779H108.206V47.6696Z" fill="#C89F73"/>
<path d="M133.659 41.9381C133.369 41.682 133.079 41.4921 132.814 41.3682C132.541 41.2526 132.259 41.1948 131.961 41.1948C131.365 41.1948 130.884 41.393 130.537 41.7894C130.18 42.1858 130.006 42.7144 130.006 43.3916C130.006 44.0441 130.189 44.5644 130.561 44.9525C130.934 45.3407 131.423 45.5389 132.044 45.5389C132.351 45.5389 132.632 45.4811 132.905 45.3572C133.171 45.2333 133.427 45.0516 133.667 44.7956V47.4054C133.303 47.6118 132.947 47.7605 132.582 47.8513C132.218 47.9505 131.845 47.9917 131.464 47.9917C130.147 47.9917 129.079 47.5706 128.267 46.7282C127.455 45.8858 127.041 44.7791 127.041 43.3999C127.041 42.0619 127.455 40.9718 128.292 40.1294C129.129 39.287 130.197 38.8575 131.497 38.8575C131.936 38.8575 132.326 38.8988 132.674 38.9814C133.021 39.064 133.353 39.2044 133.667 39.3861V41.9381H133.659Z" fill="#C89F73"/>
<path d="M152.37 44.0028H145.86C145.868 44.6635 146.034 45.1672 146.365 45.5306C146.696 45.894 147.168 46.0675 147.781 46.0675C148.237 46.0675 148.626 45.9849 148.941 45.8114C149.256 45.638 149.496 45.382 149.653 45.0434L151.923 45.9518C151.649 46.6043 151.169 47.1081 150.481 47.4632C149.794 47.8183 148.949 47.9917 147.947 47.9917C146.456 47.9917 145.263 47.5788 144.36 46.7529C143.458 45.9271 143.01 44.8369 143.01 43.4907C143.01 42.1611 143.458 41.0544 144.36 40.1789C145.263 39.3035 146.398 38.8575 147.781 38.8575C149.198 38.8575 150.316 39.3035 151.136 40.1955C151.956 41.0874 152.362 42.3015 152.362 43.8541V44.0028H152.37ZM149.396 42.3015C149.338 41.8142 149.156 41.426 148.841 41.137C148.527 40.8479 148.146 40.6993 147.682 40.6993C147.193 40.6993 146.796 40.8314 146.506 41.1039C146.216 41.3682 146.025 41.7729 145.926 42.3097H149.396V42.3015Z" fill="#C89F73"/>
<path d="M72.8305 0.156925C56.8696 9.98487 43.145 23.2319 30.5718 38.4776C29.3045 30.6235 28.0538 22.9016 26.8114 15.1879C26.8445 15.1714 26.8777 15.1466 26.9108 15.1301C29.0229 18.9209 31.135 22.7199 33.2802 26.5685C33.8683 26.0399 34.4067 25.5444 34.9451 25.0489C39.3018 21.0681 43.8077 17.3187 48.4543 13.8417C53.4654 10.0922 58.6255 6.70613 64.0176 3.87337C66.8255 2.39505 69.6913 1.10668 72.6151 0.0991132C72.6731 0.0825956 72.7311 0.0660781 72.7891 0.0495605C72.8056 0.0825956 72.8139 0.12389 72.8305 0.156925Z" fill="#00CE00"/>
</svg>
