<svg width="25" height="25" viewBox="0 0 25 25" fill="none" xmlns="http://www.w3.org/2000/svg">
<g clip-path="url(#clip0_338_550)">
<path d="M10.3027 0C10.7748 0 11.2469 0 11.7185 0C11.7889 0.0146748 11.8589 0.0371762 11.9298 0.0425569C13.1313 0.136476 14.2957 0.405025 15.3847 0.916686C19.3317 2.77109 21.564 5.86405 21.9759 10.219C22.1647 12.2158 21.7665 14.124 20.8517 15.9055C20.4676 16.6535 19.9809 17.3481 19.5142 18.1107C19.5391 18.1307 19.6218 18.1855 19.6908 18.254C21.2851 19.8457 22.8824 21.4345 24.467 23.036C24.6779 23.2493 24.8232 23.5276 24.9993 23.7756C24.9993 23.9219 24.9993 24.0686 24.9993 24.2149C24.9841 24.232 24.9626 24.2462 24.9543 24.2663C24.6236 25.0739 23.8144 25.2446 23.195 24.6278C21.7597 23.1984 20.3287 21.7642 18.8973 20.3305C18.616 20.0487 18.3396 19.7616 18.0524 19.4691C17.9658 19.5351 17.8953 19.5884 17.8259 19.6417C15.2135 21.6449 12.283 22.3991 9.03806 21.8273C4.02651 20.9454 0.241924 16.6236 0.011992 11.5368C-0.0873191 9.33611 0.40728 7.26941 1.55694 5.38565C3.27556 2.57103 5.76226 0.830594 9.00528 0.19224C9.43384 0.107615 9.87022 0.0631017 10.3027 0ZM19.9799 11.0002C19.9657 6.04553 15.9184 2.008 10.9959 2.03833C6.03426 2.06866 2.04909 6.05678 2.03882 11.0027C2.02855 15.9373 6.06851 19.9783 11.0111 19.9768C15.9546 19.9758 19.9936 15.9329 19.9799 11.0002Z" fill="#D1D1D1"/>
</g>
<defs>
<clipPath id="clip0_338_550">
<rect width="25" height="25" fill="white"/>
</clipPath>
</defs>
</svg>
