<svg width="24" height="24" viewBox="0 0 24 24" fill="none" xmlns="http://www.w3.org/2000/svg">
<g id="Property 1=Bulk, Property 2=Close Square">
<path id="Fill 1" opacity="0.4" d="M16.3399 2H7.66988C4.27988 2 1.99988 4.38 1.99988 7.92V16.09C1.99988 19.62 4.27988 22 7.66988 22H16.3399C19.7299 22 21.9999 19.62 21.9999 16.09V7.92C21.9999 4.38 19.7299 2 16.3399 2Z" fill="#32639E"/>
<path id="Fill 4" d="M15.0156 13.7705L13.2366 11.9925L15.0146 10.2145C15.3566 9.8735 15.3566 9.3185 15.0146 8.9775C14.6726 8.6335 14.1196 8.6345 13.7776 8.9765L11.9986 10.7545L10.2196 8.9745C9.87758 8.6325 9.32358 8.6345 8.98158 8.9745C8.64058 9.3165 8.64058 9.8715 8.98158 10.2125L10.7616 11.9925L8.98558 13.7675C8.64358 14.1095 8.64358 14.6645 8.98558 15.0045C9.15658 15.1765 9.37958 15.2615 9.60358 15.2615C9.82858 15.2615 10.0516 15.1765 10.2226 15.0055L11.9986 13.2295L13.7786 15.0085C13.9496 15.1795 14.1726 15.2645 14.3966 15.2645C14.6206 15.2645 14.8446 15.1785 15.0156 15.0085C15.3576 14.6665 15.3576 14.1125 15.0156 13.7705Z" fill="#32639E"/>
</g>
</svg>
