<svg width="24" height="24" viewBox="0 0 24 24" fill="none" xmlns="http://www.w3.org/2000/svg">
<g id="Property 1=Bulk, Property 2=Tick Square">
<g id="Tick Square">
<path id="Fill 1" opacity="0.4" d="M16.3402 2H7.67024C4.28024 2 2.00024 4.38 2.00024 7.92V16.09C2.00024 19.62 4.28024 22 7.67024 22H16.3402C19.7302 22 22.0002 19.62 22.0002 16.09V7.92C22.0002 4.38 19.7302 2 16.3402 2Z" fill="#32639E"/>
<path id="Fill 4" d="M10.8133 15.248C10.5893 15.248 10.3653 15.163 10.1943 14.992L7.82132 12.619C7.47932 12.277 7.47932 11.723 7.82132 11.382C8.16332 11.04 8.71632 11.039 9.05832 11.381L10.8133 13.136L14.9413 9.00796C15.2833 8.66596 15.8363 8.66596 16.1783 9.00796C16.5203 9.34996 16.5203 9.90396 16.1783 10.246L11.4323 14.992C11.2613 15.163 11.0373 15.248 10.8133 15.248Z" fill="#32639E"/>
</g>
</g>
</svg>
